<mxfile host="app.diagrams.net" modified="2024-07-24T10:00:34.030Z" agent="Mozilla/5.0 (Windows NT 10.0; Win64; x64; rv:128.0) Gecko/20100101 Firefox/128.0" etag="6a5_ZpTH3ylN_Eov42kD" version="24.7.1" type="github">
  <diagram name="Page-1" id="50ifVTyC3Bousl3vvIdK">
    <mxGraphModel dx="1050" dy="558" grid="1" gridSize="10" guides="1" tooltips="1" connect="1" arrows="1" fold="1" page="1" pageScale="1" pageWidth="827" pageHeight="1169" math="0" shadow="0">
      <root>
        <mxCell id="0" />
        <mxCell id="1" parent="0" />
        <mxCell id="YofbXjkdovAd3j35h4dX-13" value="" style="shape=ext;double=1;whiteSpace=wrap;html=1;aspect=fixed;" vertex="1" parent="1">
          <mxGeometry x="630" y="240" width="80" height="80" as="geometry" />
        </mxCell>
        <mxCell id="YofbXjkdovAd3j35h4dX-3" value="Actor" style="shape=umlActor;verticalLabelPosition=bottom;verticalAlign=top;html=1;outlineConnect=0;" vertex="1" parent="1">
          <mxGeometry x="50" y="330" width="30" height="60" as="geometry" />
        </mxCell>
        <mxCell id="YofbXjkdovAd3j35h4dX-5" value="&lt;font style=&quot;font-size: 18px;&quot;&gt;IHM&lt;/font&gt;" style="rounded=0;whiteSpace=wrap;html=1;" vertex="1" parent="1">
          <mxGeometry x="160" y="80" width="50" height="400" as="geometry" />
        </mxCell>
        <mxCell id="YofbXjkdovAd3j35h4dX-8" value="" style="endArrow=classic;html=1;rounded=0;" edge="1" parent="1">
          <mxGeometry width="50" height="50" relative="1" as="geometry">
            <mxPoint x="100" y="169.5" as="sourcePoint" />
            <mxPoint x="160" y="169.5" as="targetPoint" />
          </mxGeometry>
        </mxCell>
        <mxCell id="YofbXjkdovAd3j35h4dX-9" value="" style="endArrow=classic;html=1;rounded=0;" edge="1" parent="1">
          <mxGeometry width="50" height="50" relative="1" as="geometry">
            <mxPoint x="100" y="360" as="sourcePoint" />
            <mxPoint x="160" y="360" as="targetPoint" />
          </mxGeometry>
        </mxCell>
        <mxCell id="YofbXjkdovAd3j35h4dX-10" value="&lt;div&gt;ETL&lt;/div&gt;" style="icon;html=1;image=img/clipart/Gear_128x128.png" vertex="1" parent="1">
          <mxGeometry x="640" y="250" width="60" height="60" as="geometry" />
        </mxCell>
        <mxCell id="YofbXjkdovAd3j35h4dX-16" value="BD" style="shape=datastore;whiteSpace=wrap;html=1;" vertex="1" parent="1">
          <mxGeometry x="530" y="190" width="60" height="70" as="geometry" />
        </mxCell>
        <mxCell id="YofbXjkdovAd3j35h4dX-19" value="&lt;div&gt;service&amp;nbsp;&lt;/div&gt;&lt;div&gt;gestionnaire&amp;nbsp;&lt;/div&gt;&lt;div&gt;des comptes&lt;/div&gt;&lt;div&gt;&lt;br&gt;&lt;/div&gt;" style="rhombus;whiteSpace=wrap;html=1;" vertex="1" parent="1">
          <mxGeometry x="290" y="390" width="140" height="80" as="geometry" />
        </mxCell>
        <mxCell id="YofbXjkdovAd3j35h4dX-20" value="&lt;div&gt;service&amp;nbsp;&lt;/div&gt;&lt;div&gt;gestionnaire&amp;nbsp;&lt;/div&gt;&lt;div&gt;des comptes&lt;/div&gt;&lt;div&gt;&lt;br&gt;&lt;/div&gt;" style="rhombus;whiteSpace=wrap;html=1;" vertex="1" parent="1">
          <mxGeometry x="290" y="250" width="140" height="80" as="geometry" />
        </mxCell>
        <mxCell id="YofbXjkdovAd3j35h4dX-21" value="&lt;div&gt;service&amp;nbsp;&lt;/div&gt;&lt;div&gt;gestionnaire&amp;nbsp;&lt;/div&gt;&lt;div&gt;des comptes&lt;/div&gt;&lt;div&gt;&lt;br&gt;&lt;/div&gt;" style="rhombus;whiteSpace=wrap;html=1;" vertex="1" parent="1">
          <mxGeometry x="290" y="110" width="140" height="80" as="geometry" />
        </mxCell>
        <mxCell id="YofbXjkdovAd3j35h4dX-22" value="Actor" style="shape=umlActor;verticalLabelPosition=bottom;verticalAlign=top;html=1;outlineConnect=0;" vertex="1" parent="1">
          <mxGeometry x="50" y="140" width="30" height="60" as="geometry" />
        </mxCell>
      </root>
    </mxGraphModel>
  </diagram>
</mxfile>
